<?xml version="1.0" encoding="utf-8"?>
<!-- Generator: Adobe Illustrator 17.0.0, SVG Export Plug-In . SVG Version: 6.00 Build 0)  -->
<!DOCTYPE svg PUBLIC "-//W3C//DTD SVG 1.1//EN" "http://www.w3.org/Graphics/SVG/1.1/DTD/svg11.dtd">
<svg version="1.1" id="Layer_1" xmlns="http://www.w3.org/2000/svg" xmlns:xlink="http://www.w3.org/1999/xlink" x="0px" y="0px"
	 width="121.279px" height="48.303px" viewBox="0 0 121.279 48.303" enable-background="new 0 0 121.279 48.303"
	 xml:space="preserve">
<g>
	<path fill="#FFFFFF" d="M55.85,16.827c0.301,0.535,0.635,1.19,1.001,1.964c0.367,0.775,0.739,1.588,1.119,2.439
		c0.38,0.852,0.755,1.718,1.126,2.597c0.372,0.88,0.713,1.693,1.024,2.439c0.336-0.746,0.702-1.559,1.098-2.439
		c0.396-0.879,0.798-1.745,1.206-2.597c0.409-0.851,0.812-1.664,1.205-2.439c0.394-0.774,0.749-1.429,1.068-1.964h2.398
		c0.11,1.07,0.213,2.206,0.306,3.41c0.093,1.203,0.176,2.435,0.247,3.695c0.072,1.26,0.136,2.527,0.192,3.801
		c0.056,1.275,0.103,2.517,0.14,3.727h-2.619c-0.028-1.703-0.065-3.456-0.113-5.258c-0.047-1.802-0.135-3.548-0.263-5.237
		c-0.162,0.324-0.351,0.711-0.57,1.162c-0.219,0.451-0.453,0.94-0.701,1.468c-0.249,0.527-0.501,1.073-0.758,1.636
		c-0.255,0.564-0.505,1.109-0.747,1.636c-0.241,0.528-0.465,1.021-0.669,1.478c-0.205,0.458-0.381,0.849-0.528,1.172h-1.984
		c-0.136-0.323-0.297-0.718-0.486-1.182c-0.189-0.465-0.396-0.961-0.619-1.489c-0.222-0.528-0.453-1.073-0.689-1.636
		c-0.237-0.563-0.471-1.105-0.701-1.626c-0.23-0.521-0.447-1.01-0.649-1.468c-0.204-0.457-0.381-0.841-0.53-1.151
		c-0.187,1.69-0.337,3.435-0.447,5.237c-0.109,1.802-0.209,3.555-0.295,5.258h-2.619c0.079-1.211,0.168-2.463,0.27-3.759
		c0.102-1.295,0.21-2.579,0.325-3.854c0.115-1.274,0.241-2.509,0.377-3.706c0.136-1.196,0.275-2.302,0.423-3.315H55.85z"/>
	<path fill="#FFFFFF" d="M74.808,20.142c0.844,0,1.554,0.106,2.126,0.317c0.574,0.211,1.03,0.506,1.368,0.886
		c0.338,0.38,0.577,0.841,0.715,1.384c0.139,0.542,0.203,1.136,0.191,1.784l-0.117,6.694c-0.396,0.085-0.993,0.187-1.79,0.306
		c-0.798,0.12-1.696,0.18-2.696,0.18c-0.662,0-1.265-0.064-1.812-0.19c-0.546-0.127-1.012-0.33-1.393-0.612
		c-0.382-0.281-0.679-0.647-0.889-1.098c-0.21-0.45-0.31-1.006-0.299-1.668c0.011-0.634,0.144-1.169,0.398-1.605
		c0.254-0.436,0.594-0.791,1.022-1.066c0.426-0.274,0.918-0.471,1.477-0.591c0.557-0.119,1.14-0.179,1.745-0.179
		c0.282,0,0.577,0.018,0.886,0.053c0.309,0.035,0.639,0.095,0.989,0.18l0.008-0.423c0.005-0.296-0.025-0.577-0.092-0.844
		c-0.065-0.267-0.185-0.503-0.356-0.708c-0.173-0.204-0.403-0.362-0.689-0.475c-0.287-0.113-0.649-0.169-1.085-0.169
		c-0.591,0-1.134,0.042-1.628,0.127c-0.494,0.085-0.897,0.183-1.209,0.296L71.4,20.65c0.326-0.113,0.799-0.225,1.42-0.338
		C73.442,20.199,74.105,20.142,74.808,20.142z M74.853,29.665c0.788,0,1.387-0.042,1.797-0.127l0.05-2.829
		c-0.141-0.043-0.344-0.085-0.611-0.127c-0.266-0.042-0.562-0.064-0.885-0.064c-0.282,0-0.567,0.021-0.857,0.064
		c-0.29,0.042-0.551,0.12-0.786,0.232c-0.234,0.113-0.423,0.271-0.567,0.475c-0.145,0.205-0.22,0.461-0.225,0.771
		c-0.011,0.605,0.172,1.024,0.549,1.256C73.694,29.549,74.205,29.665,74.853,29.665z"/>
	<path fill="#FFFFFF" d="M85.01,29.623c0.676,0,1.17-0.081,1.482-0.243c0.313-0.161,0.472-0.439,0.479-0.834
		c0.007-0.366-0.154-0.668-0.48-0.908c-0.327-0.239-0.867-0.5-1.622-0.781c-0.462-0.169-0.885-0.349-1.269-0.538
		c-0.384-0.19-0.715-0.412-0.992-0.665c-0.277-0.253-0.493-0.56-0.649-0.919c-0.156-0.359-0.229-0.799-0.22-1.32
		c0.018-1.014,0.404-1.813,1.161-2.397c0.757-0.584,1.775-0.876,3.056-0.876c0.647,0,1.266,0.06,1.855,0.18
		c0.589,0.12,1.03,0.236,1.324,0.349l-0.501,2.069c-0.279-0.127-0.636-0.243-1.071-0.349c-0.435-0.106-0.941-0.158-1.518-0.158
		c-0.521,0-0.945,0.088-1.271,0.264c-0.327,0.176-0.493,0.447-0.5,0.813c-0.003,0.183,0.026,0.345,0.087,0.485
		c0.061,0.141,0.168,0.271,0.321,0.391c0.152,0.12,0.354,0.239,0.605,0.359c0.252,0.12,0.559,0.243,0.923,0.37
		c0.601,0.225,1.111,0.447,1.53,0.665c0.418,0.218,0.762,0.465,1.033,0.739c0.269,0.274,0.465,0.588,0.584,0.94
		c0.121,0.352,0.177,0.774,0.168,1.267c-0.018,1.055-0.423,1.855-1.214,2.397c-0.79,0.542-1.912,0.813-3.361,0.813
		c-0.971,0-1.751-0.081-2.339-0.243c-0.588-0.162-1.002-0.292-1.238-0.391l0.481-2.133c0.377,0.155,0.828,0.303,1.354,0.443
		C83.734,29.553,84.335,29.623,85.01,29.623z"/>
	<path fill="#FFFFFF" d="M91.978,17.503l2.562-0.422l-0.058,3.337h3.928l-0.037,2.132h-3.928l-0.078,4.497
		c-0.016,0.887,0.114,1.521,0.389,1.901c0.274,0.38,0.75,0.57,1.425,0.57c0.465,0,0.877-0.049,1.238-0.148
		c0.36-0.099,0.647-0.19,0.86-0.274l0.386,2.027c-0.298,0.127-0.687,0.257-1.168,0.391c-0.482,0.134-1.046,0.201-1.693,0.201
		c-0.789,0-1.445-0.106-1.969-0.317c-0.524-0.211-0.938-0.517-1.241-0.918c-0.302-0.401-0.512-0.887-0.628-1.457
		c-0.118-0.57-0.169-1.221-0.157-1.953L91.978,17.503z"/>
	<path fill="#FFFFFF" d="M99.981,25.992c0.018-0.971,0.176-1.823,0.477-2.555c0.302-0.732,0.696-1.341,1.183-1.827
		c0.487-0.486,1.043-0.851,1.667-1.098c0.623-0.246,1.259-0.37,1.907-0.37c1.52,0,2.698,0.472,3.533,1.415
		c0.835,0.943,1.237,2.351,1.204,4.223c-0.002,0.141-0.008,0.299-0.019,0.475c-0.011,0.176-0.024,0.334-0.04,0.475h-7.285
		c0.056,0.887,0.357,1.573,0.904,2.059c0.547,0.485,1.349,0.728,2.405,0.728c0.619,0,1.187-0.056,1.703-0.169
		c0.515-0.112,0.923-0.232,1.22-0.359l0.302,2.09c-0.143,0.071-0.338,0.144-0.585,0.222c-0.247,0.077-0.53,0.148-0.849,0.211
		c-0.317,0.064-0.659,0.116-1.026,0.159c-0.367,0.042-0.741,0.063-1.121,0.063c-0.971,0-1.813-0.144-2.526-0.433
		c-0.712-0.289-1.296-0.69-1.753-1.204c-0.455-0.514-0.789-1.119-1.003-1.816C100.066,27.586,99.966,26.822,99.981,25.992z
		 M107.412,24.851c0.006-0.351-0.037-0.686-0.13-1.003c-0.093-0.317-0.233-0.591-0.418-0.823c-0.186-0.232-0.415-0.415-0.688-0.549
		c-0.272-0.134-0.598-0.201-0.978-0.201c-0.394,0-0.741,0.074-1.039,0.222c-0.298,0.148-0.551,0.341-0.759,0.581
		c-0.209,0.239-0.372,0.514-0.49,0.823c-0.119,0.31-0.2,0.627-0.248,0.95H107.412z"/>
	<path fill="#FFFFFF" d="M119,22.719c-0.209-0.07-0.501-0.144-0.872-0.222c-0.371-0.077-0.804-0.116-1.296-0.116
		c-0.282,0-0.581,0.028-0.898,0.085c-0.319,0.056-0.541,0.105-0.668,0.148l-0.155,8.848h-2.556l0.184-10.516
		c0.497-0.183,1.115-0.355,1.857-0.517c0.742-0.162,1.563-0.243,2.464-0.243c0.169,0,0.366,0.011,0.591,0.032
		c0.225,0.021,0.45,0.05,0.674,0.085c0.226,0.035,0.443,0.077,0.653,0.127c0.21,0.049,0.379,0.095,0.504,0.137L119,22.719z"/>
</g>
<path fill="#FFFFFF" d="M47.988,28.805c-0.073,0.339-0.155,0.676-0.242,1.01C47.833,29.481,47.915,29.145,47.988,28.805z"/>
<path fill="#FFFFFF" d="M48.202,27.686c-0.052,0.312-0.112,0.62-0.176,0.928C48.089,28.306,48.15,27.997,48.202,27.686z"/>
<polygon fill="#FFFFFF" points="48.522,24.183 48.522,24.183 48.522,24.187 "/>
<path fill="#FFFFFF" d="M48.471,25.375c-0.014,0.201-0.036,0.399-0.054,0.598C48.435,25.774,48.458,25.576,48.471,25.375z"/>
<path fill="#FFFFFF" d="M48.363,26.544c-0.031,0.269-0.072,0.535-0.112,0.801C48.291,27.079,48.332,26.813,48.363,26.544z"/>
<path fill="#FFFFFF" d="M47.725,29.901c-0.094,0.356-0.197,0.708-0.307,1.057C47.528,30.608,47.631,30.256,47.725,29.901z"/>
<path fill="#FFFFFF" d="M22.256,20.554c-0.164-0.309-0.402-0.556-0.716-0.739c-0.313-0.183-0.688-0.313-1.123-0.391
	c-0.435-0.077-0.913-0.116-1.433-0.116c-0.563,0-1.085,0.021-1.564,0.064l-0.083,4.73h1.162c0.647,0,1.218-0.035,1.713-0.106
	c0.494-0.07,0.908-0.197,1.242-0.38c0.334-0.183,0.588-0.429,0.763-0.739c0.174-0.309,0.266-0.704,0.274-1.182
	C22.497,21.244,22.419,20.864,22.256,20.554z"/>
<path fill="#FFFFFF" d="M42.236,37.406c-4.749,3.656-10.622,5.623-16.697,5.623c-0.564,0-1.129-0.017-1.695-0.051
	C13.247,42.341,5.687,34.43,5.866,24.168C6.048,13.742,14.678,5.259,25.105,5.259c9.498,0,18.314,8,18.495,16.785
	c-0.023,3.034-0.433,4.769-1.565,6.664c-1.199,2.01-2.944,3.073-5.047,3.073c-0.521,0-0.991-0.076-1.414-0.218
	c-0.409,0.09-0.887,0.182-1.442,0.276c-0.791,0.134-1.658,0.201-2.601,0.201c-0.886,0-1.627-0.127-2.221-0.38
	c-0.594-0.253-1.066-0.605-1.418-1.056c-0.351-0.45-0.598-0.989-0.742-1.616c-0.144-0.626-0.209-1.312-0.196-2.059l0.108-6.187
	h2.555l-0.101,5.785c-0.021,1.183,0.137,2.027,0.474,2.534c0.336,0.507,0.933,0.76,1.792,0.76c0.31,0,0.637-0.013,0.983-0.042
	c0.345-0.028,0.603-0.063,0.772-0.106l0.156-8.932h2.555l-0.135,7.752c0.021,0.378,0.101,0.511,0.102,0.512
	c0.193,0.153,0.553,0.187,0.819,0.187c1.176,0,2.061-0.567,2.787-1.784c0.774-1.297,1.171-2.474,1.194-5.306
	c-0.151-7.312-7.904-14.26-15.954-14.26c-9.001,0-16.451,7.323-16.608,16.323c-0.155,8.851,6.403,15.676,15.592,16.228
	C37.061,41.17,47.197,32.01,48.49,22.953l0.022,0.003c0.014,0.406,0.017,0.814,0.01,1.225C48.75,11.06,38.299,0.424,25.178,0.424
	c-13.122,0-23.945,10.637-24.174,23.759C0.775,37.305,11.226,47.942,24.348,47.942c10.761,0,19.97-7.156,23.065-16.967
	c-0.226,0.716-0.485,1.417-0.774,2.103C45.388,34.653,43.913,36.115,42.236,37.406z M23.009,31.788
	c-0.258-0.507-0.538-1.017-0.839-1.531c-0.301-0.514-0.605-1.014-0.913-1.499c-0.308-0.486-0.614-0.943-0.916-1.373
	c-0.302-0.429-0.584-0.813-0.846-1.151c-0.197,0.014-0.367,0.021-0.507,0.021c-0.141,0-0.274,0-0.401,0h-1.289l-0.097,5.532h-2.66
	l0.252-14.422c0.65-0.141,1.341-0.236,2.074-0.285c0.732-0.049,1.388-0.074,1.965-0.074c2.111,0,3.72,0.387,4.826,1.161
	c1.105,0.775,1.644,1.957,1.617,3.548c-0.035,1.985-1.037,3.329-3.006,4.033c0.262,0.324,0.557,0.718,0.888,1.183
	c0.329,0.464,0.666,0.968,1.008,1.51c0.342,0.542,0.67,1.098,0.984,1.668c0.313,0.57,0.592,1.13,0.836,1.679H23.009z"/>
<path fill="#FFFFFF" d="M47.746,29.815c-0.007,0.028-0.014,0.057-0.021,0.086C47.733,29.872,47.739,29.843,47.746,29.815z"/>
<path fill="#FFFFFF" d="M47.413,30.976c0.002-0.006,0.004-0.012,0.006-0.018C47.416,30.964,47.415,30.97,47.413,30.976z"/>
<polygon fill="#FFFFFF" points="48.522,24.183 48.522,24.181 48.522,24.183 "/>
<path fill="#FFFFFF" d="M48.522,24.187c-0.007,0.399-0.024,0.795-0.051,1.189C48.497,24.981,48.515,24.585,48.522,24.187z"/>
<path fill="#FFFFFF" d="M48.251,27.345c-0.017,0.113-0.031,0.228-0.049,0.341C48.22,27.573,48.234,27.458,48.251,27.345z"/>
<path fill="#FFFFFF" d="M48.417,25.974c-0.018,0.19-0.031,0.382-0.053,0.571C48.385,26.355,48.399,26.164,48.417,25.974z"/>
<path fill="#FFFFFF" d="M48.026,28.613c-0.013,0.064-0.024,0.128-0.038,0.192C48.002,28.742,48.013,28.677,48.026,28.613z"/>
</svg>
